<svg width="19" height="15" viewBox="0 0 19 15" fill="none" xmlns="http://www.w3.org/2000/svg">
<path d="M0.43868 6.12883C0.157779 6.41152 0 6.79473 0 7.19427C0 7.59382 0.157779 7.97702 0.43868 8.25972L6.09468 13.9478C6.37607 14.2306 6.75773 14.3895 7.15568 14.3895C7.55363 14.3895 7.93529 14.2306 8.21668 13.9478C8.49808 13.6649 8.65616 13.2813 8.65616 12.8813C8.65616 12.4813 8.49808 12.0977 8.21668 11.8149L5.12068 8.70198H16.6557C17.0535 8.70198 17.435 8.54313 17.7163 8.26038C17.9976 7.97763 18.1557 7.59414 18.1557 7.19427C18.1557 6.7944 17.9976 6.41091 17.7163 6.12816C17.435 5.84542 17.0535 5.68657 16.6557 5.68657L5.12068 5.68657L8.21668 2.57466C8.35601 2.43461 8.46654 2.26835 8.54194 2.08537C8.61735 1.90239 8.65616 1.70627 8.65616 1.50821C8.65616 1.31015 8.61735 1.11404 8.54194 0.931054C8.46654 0.748073 8.35601 0.58181 8.21668 0.441762C8.07735 0.301714 7.91194 0.190622 7.72989 0.114829C7.54784 0.0390358 7.35273 2.47955e-05 7.15568 2.47955e-05C6.95863 2.47955e-05 6.76352 0.0390358 6.58147 0.114829C6.39942 0.190622 6.23401 0.301714 6.09468 0.441762L0.43868 6.12883Z" fill="#D9D9D9"/>
</svg>
