<svg width="15" height="17" viewBox="0 0 15 17" fill="none" xmlns="http://www.w3.org/2000/svg">
<path d="M11.7499 6.37504C11.7499 7.89512 10.9764 9.14887 10.011 10.1221C9.04621 11.0954 7.94971 11.7265 7.456 11.9822L8.10767 13.2402C8.66513 12.9512 9.90613 12.24 11.0168 11.1202C12.1275 10.0003 13.1666 8.40796 13.1666 6.37504H11.7499ZM7.49992 2.12504C8.62709 2.12504 9.70809 2.57281 10.5051 3.36984C11.3022 4.16687 11.7499 5.24787 11.7499 6.37504H13.1666C13.1666 4.87215 12.5696 3.43081 11.5069 2.3681C10.4442 1.3054 9.00281 0.708374 7.49992 0.708374V2.12504ZM3.24992 6.37504C3.24992 5.24787 3.69769 4.16687 4.49471 3.36984C5.29174 2.57281 6.37275 2.12504 7.49992 2.12504V0.708374C5.99703 0.708374 4.55569 1.3054 3.49298 2.3681C2.43027 3.43081 1.83325 4.87215 1.83325 6.37504H3.24992ZM7.54384 11.9822C7.05084 11.7265 5.95363 11.0954 4.98888 10.1228C4.02342 9.14887 3.24992 7.89512 3.24992 6.37504H1.83325C1.83325 8.40796 2.87238 10.0003 3.98304 11.1202C5.09371 12.2407 6.33471 12.9512 6.89217 13.2402L7.54384 11.9822ZM7.456 11.9822C7.46967 11.9755 7.48471 11.9721 7.49992 11.9723C7.51904 11.9723 7.53463 11.9772 7.54384 11.9822L6.89217 13.2402C7.07998 13.3379 7.28857 13.3889 7.50027 13.3889C7.71198 13.3889 7.92057 13.3379 8.10838 13.2402L7.456 11.9822ZM8.91659 6.37504C8.91659 6.75076 8.76733 7.1111 8.50165 7.37677C8.23598 7.64245 7.87564 7.79171 7.49992 7.79171V9.20837C8.25137 9.20837 8.97203 8.90986 9.50339 8.37851C10.0347 7.84716 10.3333 7.12649 10.3333 6.37504H8.91659ZM7.49992 4.95837C7.87564 4.95837 8.23598 5.10763 8.50165 5.37331C8.76733 5.63898 8.91659 5.99932 8.91659 6.37504H10.3333C10.3333 5.62359 10.0347 4.90292 9.50339 4.37157C8.97203 3.84022 8.25137 3.54171 7.49992 3.54171V4.95837ZM6.08325 6.37504C6.08325 5.99932 6.23251 5.63898 6.49818 5.37331C6.76386 5.10763 7.1242 4.95837 7.49992 4.95837V3.54171C6.74847 3.54171 6.0278 3.84022 5.49645 4.37157C4.9651 4.90292 4.66659 5.62359 4.66659 6.37504H6.08325ZM7.49992 7.79171C7.1242 7.79171 6.76386 7.64245 6.49818 7.37677C6.23251 7.1111 6.08325 6.75076 6.08325 6.37504H4.66659C4.66659 7.12649 4.9651 7.84716 5.49645 8.37851C6.0278 8.90986 6.74847 9.20837 7.49992 9.20837V7.79171Z" fill="#FFA978"/>
<path d="M13.0208 12.3959C13.5803 12.7189 13.875 13.0851 13.875 13.4584C13.875 13.8317 13.5803 14.1979 13.0208 14.5209C12.4612 14.8439 11.6565 15.1123 10.6875 15.2986C9.7185 15.4849 8.61917 15.5834 7.5 15.5834C6.38083 15.5834 5.2815 15.4849 4.3125 15.2986C3.3435 15.1123 2.53883 14.8439 1.97925 14.5209C1.41967 14.1979 1.125 13.8317 1.125 13.4584C1.125 13.0851 1.41967 12.7189 1.97925 12.3959" stroke="#FFA978" stroke-width="2" stroke-linecap="round"/>
</svg>
