<svg width="128" height="128" viewBox="0 0 128 128" fill="none" xmlns="http://www.w3.org/2000/svg">
<g clip-path="url(#clip0_2087_1694)">
<path fill-rule="evenodd" clip-rule="evenodd" d="M63.9998 99.5557C65.5074 99.5557 92.4443 71.4945 92.4443 56.1779C92.4443 40.8612 79.7092 28.4446 63.9998 28.4446C48.2904 28.4446 35.5554 40.8612 35.5554 56.1779C35.5554 71.4945 62.4923 99.5557 63.9998 99.5557ZM63.9999 70.0492C71.9646 70.0492 78.4213 63.7538 78.4213 55.9882C78.4213 48.2226 71.9646 41.9274 63.9999 41.9274C56.0352 41.9274 49.5786 48.2226 49.5786 55.9882C49.5786 63.7538 56.0352 70.0492 63.9999 70.0492Z" fill="#D5682B"/>
<path fill-rule="evenodd" clip-rule="evenodd" d="M35.5554 56.1779C35.5554 71.4945 62.4924 99.5557 63.9999 99.5557V70.0492C56.0352 70.0488 49.5786 63.7537 49.5786 55.9882C49.5786 48.2227 56.0352 41.9275 63.9999 41.9274V28.4446C48.2904 28.4446 35.5554 40.8612 35.5554 56.1779Z" fill="#FFA978"/>
</g>
<circle cx="64" cy="64" r="63.5" stroke="#DB9F47"/>
<defs>
<clipPath id="clip0_2087_1694">
<rect width="56.8889" height="71.1111" fill="white" transform="translate(35.5554 28.4446)"/>
</clipPath>
</defs>
</svg>
